<svg xmlns="http://www.w3.org/2000/svg" viewBox="0 0 1000 750" width="1000" height="750" role="img" aria-label="TUBES AKA — Iterative vs Recursive Complexity">
  <defs>
    <linearGradient id="bgtubesaka" x1="0" y1="0" x2="1" y2="1">
      <stop offset="0" stop-color="#141517"/>
      <stop offset="1" stop-color="#0b0b0c"/>
    </linearGradient>
    <radialGradient id="glowtubesaka" cx="0.78" cy="0.26" r="0.62">
      <stop offset="0" stop-color="#9a9cb2" stop-opacity=".16"/>
      <stop offset="1" stop-color="#9a9cb2" stop-opacity="0"/>
    </radialGradient>
    <pattern id="gridtubesaka" width="50" height="50" patternUnits="userSpaceOnUse">
      <path d="M50 0H0V50" fill="none" stroke="#ffffff" stroke-opacity=".035" stroke-width="1"/>
    </pattern>
  </defs>

  <rect width="1000" height="750" fill="url(#bgtubesaka)"/>
  <rect width="1000" height="750" fill="url(#gridtubesaka)"/>
  <rect width="1000" height="750" fill="url(#glowtubesaka)"/>

  <g><rect x="596" y="160" width="334" height="54" rx="8" fill="#9a9cb2" opacity="0.08" stroke="#9a9cb2" stroke-width="1.2" stroke-opacity=".28"/><text x="612" y="193" font-family="'JetBrains Mono',ui-monospace,'Cascadia Code',Consolas,monospace" font-size="14" fill="#9a9cb2" opacity=".5">[1]</text><rect x="654" y="175" width="122.92" height="10" rx="5" fill="#9a9cb2" opacity="0.47"/><rect x="654" y="193" width="135.85" height="10" rx="5" fill="#9a9cb2" opacity="0.29"/><rect x="596" y="234" width="334" height="54" rx="8" fill="#9a9cb2" opacity="0.05" stroke="#9a9cb2" stroke-width="1.2" stroke-opacity=".28"/><text x="612" y="267" font-family="'JetBrains Mono',ui-monospace,'Cascadia Code',Consolas,monospace" font-size="14" fill="#9a9cb2" opacity=".5">[2]</text><rect x="654" y="249" width="168.19" height="10" rx="5" fill="#9a9cb2" opacity="0.4"/><rect x="654" y="267" width="134.02" height="10" rx="5" fill="#9a9cb2" opacity="0.29"/><rect x="596" y="308" width="334" height="54" rx="8" fill="#9a9cb2" opacity="0.07" stroke="#9a9cb2" stroke-width="1.2" stroke-opacity=".28"/><text x="612" y="341" font-family="'JetBrains Mono',ui-monospace,'Cascadia Code',Consolas,monospace" font-size="14" fill="#9a9cb2" opacity=".5">[3]</text><rect x="654" y="323" width="202.48" height="10" rx="5" fill="#9a9cb2" opacity="0.28"/><rect x="654" y="341" width="73.96" height="10" rx="5" fill="#9a9cb2" opacity="0.12"/><rect x="596" y="382" width="334" height="54" rx="8" fill="#9a9cb2" opacity="0.05" stroke="#9a9cb2" stroke-width="1.2" stroke-opacity=".28"/><text x="612" y="415" font-family="'JetBrains Mono',ui-monospace,'Cascadia Code',Consolas,monospace" font-size="14" fill="#9a9cb2" opacity=".5">[4]</text><rect x="654" y="397" width="222.11" height="10" rx="5" fill="#9a9cb2" opacity="0.43"/><rect x="654" y="415" width="54.6" height="10" rx="5" fill="#9a9cb2" opacity="0.24"/></g>

  <text x="72" y="78" font-family="'JetBrains Mono',ui-monospace,'Cascadia Code',Consolas,monospace" font-size="19" letter-spacing="3.4" fill="#9a9cb2" opacity=".92">ACADEMIC</text>
  <text x="928" y="78" text-anchor="end" font-family="'JetBrains Mono',ui-monospace,'Cascadia Code',Consolas,monospace" font-size="19" letter-spacing="1.6" fill="#8a8b8f">2024</text>
  <line x1="72" y1="102" x2="928" y2="102" stroke="#ffffff" stroke-opacity=".1" stroke-width="1"/>

  <rect x="72" y="501" width="46" height="3" fill="#9a9cb2"/>
  <text x="72" y="558" font-family="'Instrument Sans','Segoe UI',system-ui,-apple-system,sans-serif" font-size="50" font-weight="600" fill="#f3f3f4" letter-spacing="-.6">TUBES AKA — Iterative vs</text>
  <text x="72" y="616" font-family="'Instrument Sans','Segoe UI',system-ui,-apple-system,sans-serif" font-size="50" font-weight="600" fill="#f3f3f4" letter-spacing="-.6">Recursive Complexity</text>

  <text x="72" y="682" font-family="'JetBrains Mono',ui-monospace,'Cascadia Code',Consolas,monospace" font-size="19" letter-spacing=".6" fill="#8a8b8f">Python  ·  Jupyter Notebook  ·  Pandas</text>
</svg>
