<svg xmlns="http://www.w3.org/2000/svg" viewBox="0 0 1000 750" width="1000" height="750" role="img" aria-label="Student Academic Performance Prediction">
  <defs>
    <linearGradient id="bgstudentacademicprediction" x1="0" y1="0" x2="1" y2="1">
      <stop offset="0" stop-color="#141517"/>
      <stop offset="1" stop-color="#0b0b0c"/>
    </linearGradient>
    <radialGradient id="glowstudentacademicprediction" cx="0.78" cy="0.26" r="0.62">
      <stop offset="0" stop-color="#6f9de8" stop-opacity=".16"/>
      <stop offset="1" stop-color="#6f9de8" stop-opacity="0"/>
    </radialGradient>
    <pattern id="gridstudentacademicprediction" width="50" height="50" patternUnits="userSpaceOnUse">
      <path d="M50 0H0V50" fill="none" stroke="#ffffff" stroke-opacity=".035" stroke-width="1"/>
    </pattern>
  </defs>

  <rect width="1000" height="750" fill="url(#bgstudentacademicprediction)"/>
  <rect width="1000" height="750" fill="url(#gridstudentacademicprediction)"/>
  <rect width="1000" height="750" fill="url(#glowstudentacademicprediction)"/>

  <g><circle cx="809.03" cy="239.79" r="6.07" fill="#6f9de8" opacity="0.48"/><circle cx="562.48" cy="408.03" r="4.28" fill="#6f9de8" opacity="0.52"/><circle cx="671.54" cy="312.71" r="4.41" fill="#6f9de8" opacity="0.4"/><circle cx="608.65" cy="446.47" r="6.1" fill="#6f9de8" opacity="0.4"/><circle cx="756.24" cy="334.56" r="3.91" fill="#6f9de8" opacity="0.32"/><circle cx="929.95" cy="154.35" r="5.02" fill="#6f9de8" opacity="0.41"/><circle cx="612.9" cy="390.23" r="3.21" fill="#6f9de8" opacity="0.54"/><circle cx="627.9" cy="316.88" r="3.58" fill="#6f9de8" opacity="0.4"/><circle cx="618.13" cy="407.4" r="3.77" fill="#6f9de8" opacity="0.45"/><circle cx="859.4" cy="187.8" r="4.69" fill="#6f9de8" opacity="0.58"/><circle cx="605.44" cy="443.63" r="4.84" fill="#6f9de8" opacity="0.58"/><circle cx="770.03" cy="278.38" r="3.42" fill="#6f9de8" opacity="0.27"/><circle cx="906.63" cy="239.77" r="3.6" fill="#6f9de8" opacity="0.23"/><circle cx="823.1" cy="322.61" r="6.19" fill="#6f9de8" opacity="0.26"/><circle cx="825.19" cy="299.37" r="5.54" fill="#6f9de8" opacity="0.36"/><circle cx="563.78" cy="472.36" r="4.65" fill="#6f9de8" opacity="0.28"/><circle cx="693.98" cy="362.44" r="3.38" fill="#6f9de8" opacity="0.25"/><circle cx="713.05" cy="349.76" r="3.36" fill="#6f9de8" opacity="0.55"/><circle cx="622.91" cy="384.94" r="4.51" fill="#6f9de8" opacity="0.37"/><circle cx="607.93" cy="355.49" r="6.42" fill="#6f9de8" opacity="0.56"/><circle cx="630.64" cy="369.99" r="4.71" fill="#6f9de8" opacity="0.48"/><circle cx="864.31" cy="188.08" r="3.12" fill="#6f9de8" opacity="0.45"/><circle cx="849.86" cy="240.76" r="4.55" fill="#6f9de8" opacity="0.22"/><circle cx="898.78" cy="178.67" r="6.21" fill="#6f9de8" opacity="0.45"/><circle cx="613.57" cy="356.13" r="5.8" fill="#6f9de8" opacity="0.25"/><circle cx="607.23" cy="414.55" r="4.02" fill="#6f9de8" opacity="0.41"/><circle cx="792.82" cy="220.41" r="5.87" fill="#6f9de8" opacity="0.26"/><circle cx="611.64" cy="438.37" r="5.66" fill="#6f9de8" opacity="0.32"/><circle cx="810.39" cy="284.12" r="4.31" fill="#6f9de8" opacity="0.62"/><circle cx="726.38" cy="304.94" r="4.55" fill="#6f9de8" opacity="0.4"/><circle cx="682.62" cy="377.31" r="6.1" fill="#6f9de8" opacity="0.23"/><circle cx="739.19" cy="247.2" r="5.81" fill="#6f9de8" opacity="0.52"/><circle cx="884.51" cy="241.68" r="5.93" fill="#6f9de8" opacity="0.54"/><circle cx="594.7" cy="404.96" r="4.07" fill="#6f9de8" opacity="0.47"/><line x1="560" y1="410" x2="930" y2="196" stroke="#6f9de8" stroke-width="2" opacity=".5"/></g>

  <text x="72" y="78" font-family="'JetBrains Mono',ui-monospace,'Cascadia Code',Consolas,monospace" font-size="19" letter-spacing="3.4" fill="#6f9de8" opacity=".92">DATA SCIENCE</text>
  <text x="928" y="78" text-anchor="end" font-family="'JetBrains Mono',ui-monospace,'Cascadia Code',Consolas,monospace" font-size="19" letter-spacing="1.6" fill="#8a8b8f">2024</text>
  <line x1="72" y1="102" x2="928" y2="102" stroke="#ffffff" stroke-opacity=".1" stroke-width="1"/>

  <rect x="72" y="501" width="46" height="3" fill="#6f9de8"/>
  <text x="72" y="558" font-family="'Instrument Sans','Segoe UI',system-ui,-apple-system,sans-serif" font-size="50" font-weight="600" fill="#f3f3f4" letter-spacing="-.6">Student Academic Performance</text>
  <text x="72" y="616" font-family="'Instrument Sans','Segoe UI',system-ui,-apple-system,sans-serif" font-size="50" font-weight="600" fill="#f3f3f4" letter-spacing="-.6">Prediction</text>

  <text x="72" y="682" font-family="'JetBrains Mono',ui-monospace,'Cascadia Code',Consolas,monospace" font-size="19" letter-spacing=".6" fill="#8a8b8f">Python  ·  Jupyter Notebook  ·  CatBoost</text>
</svg>
